<?xml version="1.0" ?><svg height="128" viewBox="0 0 128 128" width="128" xmlns="http://www.w3.org/2000/svg"><defs><style>.cls-1,.cls-2,.cls-5{fill:none;stroke-linecap:round;stroke-linejoin:round;stroke-width:3px;}.cls-1,.cls-2{stroke:#252d32;}.cls-2{stroke-dasharray:4 6;}.cls-3{fill:#79c651;}.cls-4{fill:#252d32;}.cls-5{stroke:#ffc960;}</style></defs><title/><g id="Icons"><line class="cls-1" x1="14.39" x2="114.3" y1="34.34" y2="91.62"/><path class="cls-2" d="M26.15,19.38a58.53,58.53,0,0,1,94.92,57.56"/><path class="cls-1" d="M119.29,83.14a58.51,58.51,0,1,1-99.89-57"/><path class="cls-3" d="M27.06,67.25c-4.18-.8-7.74-1.64-7.74-1.64l-5.4,2.71,14.39,9.11-4,12.17L27.53,89l6.27-7.09L48.53,77A68.68,68.68,0,0,1,27.06,67.25Z"/><path class="cls-1" d="M82.5,64.61s23.39-10.33,26.7-15.18c1-1.53-7.1-6.26-15.25-4.72-4.16.78-50.57,23.06-54.64,23.83s-20-3-20-3l-5.4,2.71L28.3,77.38"/><polyline class="cls-1" points="28.99 76.55 23.96 90.17 29.18 89.18 36.5 80.5"/><line class="cls-1" x1="36.5" x2="55.65" y1="80.5" y2="74.02"/><polyline class="cls-1" points="63.38 70.75 53.56 90.35 59.57 89.04 82.5 64.61"/><polyline class="cls-1" points="50.5 47.5 53.23 46.48 78.5 50.5"/><path class="cls-1" d="M94.43,51.72l1.2-.55c1.25-.58,3.36-1.65,4.13-2.79l1.59-2.33"/><path class="cls-4" d="M53.74,69.24a1.25,1.25,0,1,0-.67,1.63A1.26,1.26,0,0,0,53.74,69.24Z"/><path class="cls-4" d="M58.33,67.32a1.23,1.23,0,0,0-1.63-.67,1.25,1.25,0,1,0,1.63.67Z"/><path class="cls-4" d="M72.12,61.56a1.23,1.23,0,0,0-1.63-.67,1.25,1.25,0,1,0,1.63.67Z"/><path class="cls-4" d="M76.72,59.64a1.25,1.25,0,1,0-.67,1.63A1.26,1.26,0,0,0,76.72,59.64Z"/><path class="cls-4" d="M81.31,57.72a1.23,1.23,0,0,0-1.63-.67,1.25,1.25,0,1,0,1.63.67Z"/><path class="cls-4" d="M85.91,55.8a1.25,1.25,0,1,0-.67,1.62A1.24,1.24,0,0,0,85.91,55.8Z"/><line class="cls-5" x1="72.5" x2="50.5" y1="96.5" y2="105.5"/><line class="cls-5" x1="69.5" x2="59.5" y1="104.5" y2="108.5"/><line class="cls-5" x1="84.5" x2="62.5" y1="27.5" y2="36.5"/><line class="cls-5" x1="75.5" x2="65.5" y1="23.5" y2="27.5"/></g></svg>