<?xml version="1.0" ?><svg id="Layer_1" style="enable-background:new 0 0 512 512;" version="1.1" viewBox="0 0 512 512" xml:space="preserve" xmlns="http://www.w3.org/2000/svg" xmlns:xlink="http://www.w3.org/1999/xlink"><style type="text/css">
	.st0{fill:#1EF6F6;}
	.st1{fill:#FDDD7B;}
	.st2{fill:#EAF3F2;}
	.st3{fill:#D4FF93;}
	.st4{fill:#FD535F;}
	.st5{stroke:#000000;stroke-width:2;stroke-linecap:round;stroke-linejoin:round;stroke-miterlimit:10;}
	.st6{fill:none;stroke:#000000;stroke-width:2;stroke-linecap:round;stroke-linejoin:round;stroke-miterlimit:10;}
	.st7{fill:#1EF6F6;stroke:#000000;stroke-width:2;stroke-linecap:round;stroke-linejoin:round;stroke-miterlimit:10;}
</style><g><g><polyline class="st2" points="317.63,43.38 503.27,43.38 503.27,406.81 8.73,406.81 8.73,43.38 141.62,43.38   "/><path d="M503.27,414.54H8.73c-4.27,0-7.73-3.46-7.73-7.73V43.38c0-4.27,3.46-7.73,7.73-7.73h132.89c4.27,0,7.73,3.46,7.73,7.73    s-3.46,7.73-7.73,7.73H16.46v347.98h479.09V51.1H317.63c-4.27,0-7.73-3.46-7.73-7.73s3.46-7.73,7.73-7.73h185.64    c4.27,0,7.73,3.46,7.73,7.73v363.44C511,411.08,507.54,414.54,503.27,414.54z"/></g><g><polyline class="st0" points="367.91,84.78 457.27,84.78 457.27,365.41 54.73,365.41 54.73,84.78 127.86,84.78   "/><path d="M457.27,373.13H54.73c-4.27,0-7.73-3.46-7.73-7.73V84.78c0-4.27,3.46-7.73,7.73-7.73h73.13c4.27,0,7.73,3.46,7.73,7.73    s-3.46,7.73-7.73,7.73h-65.4v265.17h387.08V92.51h-81.63c-4.27,0-7.73-3.46-7.73-7.73s3.46-7.73,7.73-7.73h89.36    c4.27,0,7.73,3.46,7.73,7.73v280.63C464.99,369.68,461.53,373.13,457.27,373.13z"/></g><g><path d="M326.16,506.54H185.84c-2.43,0-4.72-1.14-6.18-3.09c-1.46-1.94-1.92-4.45-1.25-6.78l26.57-92    c0.96-3.31,3.98-5.58,7.43-5.58h87.17c3.44,0,6.47,2.28,7.43,5.58l26.57,92c0.67,2.33,0.21,4.84-1.25,6.78    C330.87,505.4,328.59,506.54,326.16,506.54z M196.12,491.09h119.76l-22.11-76.55h-75.54L196.12,491.09z"/></g><g><path d="M374.81,506.54H137.19c-4.27,0-7.73-3.46-7.73-7.73c0-4.27,3.46-7.73,7.73-7.73h237.61c4.27,0,7.73,3.46,7.73,7.73    C382.53,503.09,379.07,506.54,374.81,506.54z"/></g><g><path class="st1" d="M282.48,240.06c39.44,0,77.62,0,90.39,0c29.34,0,53.12-23.79,53.12-53.13c0-29.34-23.78-53.13-53.12-53.13    c-1.45,0-2.88,0.1-4.31,0.22c2.74-7.4,4.31-15.36,4.31-23.71c0-37.76-30.61-68.37-68.37-68.37c-13.13,0-25.35,3.77-35.77,10.18    c-12.78-23.21-37.47-38.95-65.84-38.95c-41.49,0-75.13,33.64-75.13,75.13c0,6.47,0.91,12.72,2.44,18.71    C104.38,116.93,86,141.91,86,171.23c0,38.01,30.81,68.82,68.82,68.82c14.01,0,41.77,0,74.69,0"/><path d="M372.87,247.79h-90.39c-4.27,0-7.73-3.46-7.73-7.73c0-4.27,3.46-7.73,7.73-7.73h90.39c25.03,0,45.4-20.37,45.4-45.41    c0-25.03-20.37-45.4-45.4-45.4c-1.25,0-2.48,0.1-3.7,0.2c-2.58,0.21-5.18-0.94-6.77-3.04c-1.59-2.11-2-4.87-1.08-7.35    c2.54-6.85,3.83-13.92,3.83-21.02c0-33.44-27.2-60.64-60.64-60.64c-11.15,0-22.12,3.12-31.71,9.03c-1.8,1.11-3.98,1.43-6.02,0.89    c-2.04-0.54-3.78-1.89-4.8-3.74c-11.87-21.56-34.5-34.95-59.07-34.95c-37.16,0-67.4,30.24-67.4,67.4c0,5.45,0.74,11.09,2.2,16.79    c0.97,3.8-1.06,7.73-4.72,9.13c-23.48,9.01-39.25,31.91-39.25,57c0,33.69,27.41,61.1,61.09,61.1h74.69c4.27,0,7.73,3.46,7.73,7.73    c0,4.27-3.46,7.73-7.73,7.73h-74.69c-42.21,0-76.55-34.34-76.55-76.56c0-29.2,17.05-56.05,43.05-68.76    c-0.85-4.77-1.28-9.51-1.28-14.16c0-45.68,37.17-82.86,82.86-82.86c27.61,0,53.24,13.76,68.58,36.36    c10.3-4.99,21.58-7.6,33.03-7.6c41.96,0,76.1,34.14,76.1,76.1c0,5.39-0.58,10.75-1.75,16.05c30.76,3.01,54.88,29.02,54.88,60.56    C433.73,220.48,406.43,247.79,372.87,247.79z"/></g><g><polygon class="st4" points="317.63,186.79 256,105.83 194.37,186.79 229.51,186.79 229.51,332.86 282.48,332.86 282.48,186.79       "/><path d="M282.48,340.59h-52.97c-4.27,0-7.73-3.46-7.73-7.73V194.52h-27.42c-2.94,0-5.62-1.67-6.92-4.29    c-1.31-2.63-1-5.78,0.77-8.11l61.63-80.96c2.93-3.85,9.37-3.85,12.3,0l61.63,80.96c1.78,2.33,2.08,5.48,0.77,8.11    c-1.31,2.63-3.99,4.29-6.92,4.29h-27.42v138.34C290.21,337.13,286.75,340.59,282.48,340.59z M237.24,325.13h37.52V186.79    c0-4.27,3.46-7.73,7.73-7.73h19.56L256,118.59l-46.04,60.47h19.55c4.27,0,7.73,3.46,7.73,7.73V325.13z"/></g></g></svg>